<svg xmlns="http://www.w3.org/2000/svg" viewBox="0 0 64 64">
  <style>
    @keyframes spin { to { transform: rotate(360deg); } }
    .candy { animation: spin 2s linear infinite; transform-origin: 32px 26px; }
  </style>
  <rect x="29" y="44" width="6" height="17" rx="3" fill="#c8a97e"/>
  <g class="candy">
    <path d="M32,26 L32,4 A22,22 0 0,1 51.05,15 Z" fill="#ff3333"/>
    <path d="M32,26 L51.05,15 A22,22 0 0,1 51.05,37 Z" fill="#ff8c00"/>
    <path d="M32,26 L51.05,37 A22,22 0 0,1 32,48 Z" fill="#ffd700"/>
    <path d="M32,26 L32,48 A22,22 0 0,1 12.95,37 Z" fill="#33cc44"/>
    <path d="M32,26 L12.95,37 A22,22 0 0,1 12.95,15 Z" fill="#3388ff"/>
    <path d="M32,26 L12.95,15 A22,22 0 0,1 32,4 Z" fill="#cc33cc"/>
  </g>
  <circle cx="32" cy="26" r="4" fill="rgba(255,255,255,0.5)"/>
</svg>
